<?xml version="1.0" encoding="UTF-8"?>
<svg width="256" height="256" viewBox="0 0 256 256" fill="none" xmlns="http://www.w3.org/2000/svg">
  <rect width="256" height="256" rx="60" fill="url(#paint0_linear)"/>

  <path d="M180 50L210 80L140 150L110 120L180 50Z" fill="#95a5a6"/> <path d="M195 65L225 35L235 45L205 75L195 65Z" fill="#bdc3c7"/> <path d="M130 140L100 170L80 150L110 120L130 140Z" fill="#7f8c8d"/> <path d="M90 160L60 190L70 200L100 170L90 160Z" fill="#34495e"/> <circle cx="65" cy="195" r="10" fill="#f1c40f"/> <path d="M128 40C128 40 60 50 60 100C60 165 128 220 128 220C128 220 196 165 196 100C196 50 128 40 128 40Z" fill="#2c3e50" stroke="#95a5a6" stroke-width="8"/>

  <g filter="url(#filter0_d)">
    <rect x="85" y="80" width="86" height="10" rx="5" fill="#e67e22"/>
    <rect x="85" y="105" width="60" height="10" rx="5" fill="#f1c40f"/>
    <rect x="85" y="130" width="75" height="10" rx="5" fill="#e67e22"/>
    <rect x="85" y="155" width="40" height="10" rx="5" fill="#f1c40f"/>
  </g>

  <defs>
    <linearGradient id="paint0_linear" x1="0" y1="0" x2="256" y2="256" gradientUnits="userSpaceOnUse">
      <stop stop-color="#2c3e50"/>
      <stop offset="1" stop-color="#1a1a2e"/>
    </linearGradient>
    <filter id="filter0_d" x="81" y="76" width="94" height="93" filterUnits="userSpaceOnUse" color-interpolation-filters="sRGB">
      <feFlood flood-opacity="0" result="BackgroundImageFix"/>
      <feColorMatrix in="SourceAlpha" type="matrix" values="0 0 0 0 0 0 0 0 0 0 0 0 0 0 0 0 0 0 127 0" result="hardAlpha"/>
      <feOffset dy="4"/>
      <feGaussianBlur stdDeviation="2"/>
      <feComposite in2="hardAlpha" operator="out"/>
      <feColorMatrix type="matrix" values="0 0 0 0 0.945098 0 0 0 0 0.768627 0 0 0 0 0.0588235 0 0 0 0.5 0"/>
      <feBlend mode="normal" in2="BackgroundImageFix" result="effect1_dropShadow"/>
      <feBlend mode="normal" in="SourceGraphic" in2="effect1_dropShadow" result="shape"/>
    </filter>
  </defs>
</svg>
